<svg id="svg" version="1.1" width="770" height="800" xmlns="http://www.w3.org/2000/svg"><path d="M364.572 1.712 C 349.525 6.306,332.770 22.076,325.435 38.551 C 320.713 49.155,316.156 62.741,315.330 68.670 C 314.877 71.928,313.958 73.450,311.125 75.634 C 306.839 78.938,298.417 87.402,295.278 91.558 C 292.004 95.893,283.996 112.402,282.285 118.343 C 275.999 140.167,276.025 169.806,282.355 197.015 C 284.927 208.069,285.474 209.000,289.407 209.000 C 293.496 209.000,294.910 210.700,300.441 222.267 C 307.374 236.764,307.702 254.801,301.368 273.196 C 296.837 286.354,295.309 289.548,285.543 306.284 C 281.119 313.866,275.150 324.441,272.279 329.784 L 267.057 339.500 267.029 410.727 L 267.000 481.954 269.303 483.463 C 270.570 484.293,274.105 485.832,277.157 486.882 C 285.875 489.881,302.606 498.111,313.000 504.513 C 318.225 507.731,322.725 510.621,323.000 510.935 C 323.275 511.249,325.500 512.854,327.944 514.503 C 337.276 520.796,353.107 534.650,368.761 550.220 L 385.023 566.395 401.261 550.224 C 416.891 534.659,432.719 520.799,442.056 514.503 C 444.500 512.854,446.725 511.260,447.000 510.961 C 450.715 506.913,483.227 489.943,493.870 486.498 C 503.904 483.250,503.000 490.776,503.000 410.509 L 503.000 340.018 498.175 330.759 C 495.521 325.667,491.415 318.350,489.050 314.500 C 478.458 297.253,474.337 289.033,468.922 274.358 L 464.547 262.500 464.579 248.000 C 464.614 231.815,465.736 227.445,472.924 215.500 C 476.207 210.043,476.876 209.472,480.316 209.187 C 484.593 208.832,485.086 208.013,487.645 197.015 C 493.951 169.907,493.978 140.085,487.715 118.343 C 486.898 115.507,484.135 108.966,481.575 103.808 C 475.767 92.106,469.670 84.527,459.330 76.155 C 456.062 73.510,455.068 71.943,454.572 68.655 C 453.314 60.318,444.888 37.157,441.600 33.000 C 440.948 32.175,439.758 30.193,438.957 28.596 C 436.497 23.692,421.854 9.522,415.894 6.278 C 406.295 1.052,400.861 -0.012,384.346 0.104 C 374.251 0.175,367.923 0.690,364.572 1.712 M399.000 3.131 C 399.000 3.486,400.602 4.078,402.559 4.445 C 409.236 5.698,419.774 12.112,426.724 19.155 C 436.087 28.642,441.612 37.991,446.430 52.500 C 447.892 56.900,449.476 61.215,449.952 62.089 C 450.427 62.963,451.134 66.225,451.523 69.338 C 452.183 74.619,452.546 75.230,456.933 78.451 C 462.763 82.731,469.882 90.269,473.489 95.983 C 477.745 102.725,482.990 113.322,482.995 115.191 C 482.998 116.121,483.450 117.160,484.000 117.500 C 484.550 117.840,485.000 119.126,485.000 120.359 C 485.000 121.592,485.403 123.027,485.896 123.550 C 487.663 125.424,489.455 141.765,489.455 156.000 C 489.455 171.538,486.803 192.076,483.966 198.500 C 483.481 199.600,482.952 201.625,482.792 203.000 C 482.540 205.156,482.064 205.458,479.334 205.197 C 476.584 204.934,475.782 205.459,473.221 209.197 C 469.568 214.530,466.679 220.177,463.753 227.704 C 461.799 232.731,461.500 235.357,461.500 247.500 C 461.500 261.889,461.879 264.072,466.704 277.500 C 471.120 289.788,476.844 300.966,487.500 318.109 C 488.050 318.994,490.017 322.577,491.872 326.072 C 493.726 329.567,496.317 334.126,497.629 336.204 L 500.014 339.982 499.757 410.155 L 499.500 480.328 496.500 481.966 C 494.850 482.867,491.250 484.427,488.500 485.433 C 460.407 495.710,434.452 513.704,402.751 544.880 C 392.989 554.481,384.872 562.148,384.712 561.918 C 381.459 557.237,368.593 544.062,358.498 535.075 C 328.893 508.718,309.690 496.263,281.500 485.133 L 271.500 481.184 271.243 410.990 L 270.986 340.796 275.626 332.214 C 278.178 327.494,282.600 319.777,285.452 315.066 C 296.630 296.603,302.847 283.533,307.125 269.500 C 309.118 262.963,310.057 247.327,309.010 238.091 C 308.439 233.052,307.603 228.157,307.151 227.214 C 297.510 207.095,295.555 204.439,291.047 205.341 C 288.238 205.902,288.197 205.839,287.031 199.204 C 286.384 195.517,285.455 191.600,284.967 190.500 C 282.458 184.841,279.967 145.494,281.867 141.540 C 282.406 140.418,283.129 136.370,283.473 132.543 C 283.817 128.717,284.467 125.117,284.919 124.543 C 285.370 123.970,286.057 121.700,286.445 119.500 C 287.441 113.857,295.285 98.415,300.588 91.658 C 303.049 88.523,308.147 83.438,311.918 80.357 C 318.233 75.198,318.824 74.384,319.399 70.053 C 320.300 63.256,325.385 48.171,329.588 39.826 C 334.306 30.456,339.280 23.808,346.736 16.905 C 352.783 11.307,365.981 4.000,370.047 4.000 C 371.186 4.000,371.907 3.659,371.650 3.242 C 371.392 2.825,377.440 2.484,385.091 2.484 C 392.741 2.484,399.000 2.775,399.000 3.131 M379.908 13.426 C 379.588 13.746,376.756 14.483,373.615 15.063 C 360.502 17.487,347.439 29.253,339.443 45.841 C 333.316 58.549,333.193 58.845,332.075 63.500 C 331.546 65.700,330.649 69.300,330.081 71.500 C 329.513 73.700,329.037 76.951,329.024 78.724 C 329.005 81.241,328.378 82.270,326.166 83.414 C 320.815 86.181,313.065 92.997,308.975 98.534 C 305.037 103.864,298.000 117.563,298.000 119.898 C 298.000 120.519,297.571 121.809,297.046 122.764 C 294.867 126.730,293.777 137.624,293.720 156.000 C 293.661 175.337,295.343 192.000,297.355 192.000 C 298.667 192.000,308.487 181.917,322.189 166.500 C 347.148 138.419,359.473 129.505,378.119 126.050 C 390.510 123.753,404.993 128.111,419.500 138.502 C 426.114 143.238,437.574 154.837,457.794 177.259 C 465.106 185.366,471.666 192.000,472.371 192.000 C 475.760 192.000,477.977 148.025,475.319 133.525 C 471.379 112.038,461.963 95.724,448.000 86.193 L 441.500 81.756 440.341 75.128 C 438.561 64.940,437.311 60.753,433.217 51.259 C 424.373 30.747,411.097 17.881,395.625 14.829 C 388.562 13.435,380.608 12.725,379.908 13.426 M403.362 21.789 C 419.966 29.559,432.439 51.296,437.452 81.199 C 437.986 84.388,438.875 85.387,443.898 88.438 C 462.516 99.748,472.990 123.981,473.007 155.785 C 473.013 168.490,471.312 184.000,469.913 184.000 C 469.505 184.000,461.326 175.324,451.737 164.720 C 442.148 154.115,432.097 143.608,429.401 141.370 C 419.239 132.934,411.809 128.100,404.768 125.344 C 398.159 122.758,396.367 122.500,385.000 122.500 C 373.675 122.500,371.827 122.764,365.337 125.304 C 351.565 130.696,340.844 139.695,317.862 165.153 C 308.505 175.519,300.487 184.000,300.046 184.000 C 298.608 184.000,297.000 169.215,297.000 155.995 C 297.000 123.400,307.974 98.568,327.208 87.640 C 331.159 85.395,332.019 84.365,332.556 81.232 C 336.306 59.349,343.988 41.485,354.230 30.826 C 363.540 21.136,372.013 17.865,386.585 18.333 C 395.407 18.617,397.508 19.049,403.362 21.789 M252.500 98.961 C 251.400 99.416,248.475 100.360,246.000 101.059 C 237.427 103.482,228.454 108.934,220.792 116.375 C 212.841 124.098,208.100 131.242,203.423 142.550 C 200.666 149.215,200.538 150.237,200.298 167.500 C 200.070 183.964,199.830 186.097,197.492 192.500 C 196.085 196.350,193.988 202.425,192.831 206.000 C 191.674 209.575,189.940 214.750,188.976 217.500 C 186.214 225.384,184.001 233.082,183.985 234.865 C 183.977 235.764,183.373 238.214,182.644 240.309 C 181.395 243.894,181.279 243.238,180.670 229.171 C 180.210 218.522,179.307 211.245,177.531 203.862 C 173.478 187.008,163.651 169.463,158.677 170.200 C 155.109 170.728,146.265 190.280,143.053 204.739 C 140.257 217.326,140.222 235.653,142.974 246.161 C 146.822 260.851,154.763 275.042,164.205 284.100 C 169.295 288.983,170.038 291.611,168.026 297.601 C 167.490 299.195,166.595 303.875,166.036 308.000 C 165.477 312.125,164.526 317.975,163.924 321.000 C 163.322 324.025,162.511 329.425,162.122 333.000 L 161.416 339.500 159.797 335.841 C 155.320 325.723,142.717 311.034,133.500 305.192 C 126.476 300.741,118.370 296.922,115.492 296.708 C 112.894 296.514,112.607 296.880,111.344 302.000 C 108.906 311.891,108.488 332.269,110.514 342.500 C 113.556 357.858,119.311 370.279,127.355 378.852 C 133.332 385.221,148.008 393.646,156.250 395.440 C 158.920 396.021,159.000 396.235,158.991 402.769 C 158.977 413.758,162.440 441.513,164.572 447.500 C 164.964 448.600,162.607 446.866,159.335 443.647 C 148.204 432.694,137.005 428.160,119.000 427.317 C 106.390 426.727,100.691 427.653,100.166 430.377 C 99.981 431.339,100.956 434.911,102.332 438.313 C 103.709 441.716,106.455 449.225,108.433 455.000 C 116.031 477.177,116.443 478.198,122.627 490.108 C 127.638 499.760,136.360 508.166,144.974 511.646 C 156.597 516.340,167.094 516.905,179.910 513.524 L 184.959 512.192 191.580 523.846 C 207.932 552.630,225.121 571.928,252.897 592.687 C 264.750 601.546,295.844 618.349,310.000 623.546 C 324.804 628.981,337.016 633.139,340.500 633.931 C 342.700 634.431,349.000 636.059,354.500 637.548 C 364.954 640.379,370.243 641.505,378.357 642.630 L 383.214 643.304 382.713 638.402 C 382.027 631.685,379.308 615.892,378.467 613.741 C 377.734 611.866,377.296 611.728,366.500 609.984 C 338.612 605.478,317.237 598.711,295.500 587.506 C 284.685 581.931,280.781 579.787,280.000 578.991 C 279.725 578.710,277.475 577.175,275.000 575.578 C 266.900 570.352,252.550 558.311,245.203 550.577 C 237.894 542.882,237.147 541.645,239.083 540.449 C 240.526 539.557,247.070 529.395,249.031 525.000 C 249.890 523.075,251.187 519.475,251.913 517.000 C 252.639 514.525,253.631 511.195,254.117 509.601 C 255.584 504.784,255.140 484.164,253.394 476.000 C 248.440 452.847,243.898 438.565,240.892 436.692 C 239.648 435.916,237.384 436.940,230.892 441.217 C 214.703 451.882,205.916 463.937,204.466 477.469 C 203.734 484.311,202.453 485.912,201.441 481.250 C 201.113 479.738,200.442 477.600,199.950 476.500 C 198.615 473.513,194.445 460.328,192.676 453.500 C 191.821 450.200,190.384 444.647,189.484 441.160 C 188.583 437.673,187.993 434.688,188.173 434.526 C 188.353 434.364,190.975 433.194,194.000 431.926 C 205.938 426.920,220.009 415.622,223.092 408.566 C 223.589 407.430,224.408 405.825,224.913 405.000 C 229.615 397.313,232.478 382.024,231.682 368.853 C 230.767 353.712,229.080 341.674,227.744 340.759 C 225.684 339.347,216.126 340.880,210.643 343.501 C 199.042 349.047,190.612 357.728,184.424 370.500 L 181.033 377.500 181.459 356.000 C 181.693 344.175,182.249 332.074,182.693 329.108 L 183.500 323.716 191.500 321.365 C 195.900 320.072,200.400 318.581,201.500 318.052 C 202.600 317.523,205.234 316.398,207.354 315.552 C 213.221 313.212,224.202 305.578,230.007 299.803 C 235.485 294.354,244.000 282.432,244.000 280.211 C 244.000 279.490,244.713 277.522,245.584 275.837 C 249.016 269.201,250.300 261.676,250.335 248.000 C 250.371 234.084,248.837 226.983,245.801 227.013 C 244.387 227.026,235.015 231.618,229.158 235.167 C 216.929 242.576,196.898 262.158,193.014 270.500 C 191.729 273.261,191.588 273.326,191.247 271.314 C 191.044 270.111,191.580 267.058,192.439 264.529 C 193.297 261.999,194.000 259.063,194.000 258.003 C 194.000 256.942,194.864 253.696,195.920 250.788 C 196.975 247.879,198.152 243.925,198.535 242.000 C 198.918 240.075,199.570 238.050,199.985 237.500 C 200.400 236.950,201.040 234.832,201.407 232.792 C 201.774 230.753,202.730 227.828,203.531 226.292 C 204.332 224.757,204.995 223.050,205.004 222.500 C 205.020 221.426,211.408 205.498,214.891 197.845 C 216.265 194.826,219.205 191.326,223.255 187.886 C 234.394 178.426,251.568 160.649,255.425 154.585 C 258.722 149.400,261.134 144.665,264.128 137.500 C 266.934 130.786,269.500 112.819,268.554 106.510 C 267.810 101.547,267.081 100.801,261.384 99.175 C 256.690 97.835,255.308 97.802,252.500 98.961 M507.792 99.325 C 502.753 100.944,502.034 101.872,501.395 107.577 C 500.653 114.199,503.407 132.906,505.830 137.700 C 506.331 138.690,507.703 141.659,508.880 144.298 C 514.178 156.173,528.171 172.197,548.048 189.150 C 552.764 193.173,554.018 195.064,557.335 203.150 C 559.444 208.293,562.031 214.425,563.085 216.777 C 564.138 219.129,565.003 221.604,565.006 222.277 C 565.010 222.950,565.668 224.757,566.469 226.292 C 567.270 227.828,568.226 230.753,568.593 232.792 C 568.960 234.832,569.600 236.950,570.015 237.500 C 570.430 238.050,571.245 240.525,571.828 243.000 C 572.819 247.214,573.898 251.281,577.699 265.132 C 579.488 271.649,579.099 274.479,576.983 270.343 C 574.197 264.898,561.247 251.019,551.465 242.994 C 544.524 237.300,529.827 228.497,525.413 227.389 C 523.588 226.931,522.800 227.472,521.379 230.160 C 518.846 234.951,518.795 257.741,521.296 267.200 C 524.747 280.250,530.631 290.470,540.193 300.027 C 545.905 305.736,557.567 313.827,563.093 315.914 C 564.967 316.622,567.400 317.610,568.500 318.108 C 569.600 318.606,574.100 320.072,578.500 321.365 L 586.500 323.715 587.314 329.607 C 587.762 332.848,588.309 344.950,588.531 356.500 L 588.934 377.500 585.996 371.212 C 577.893 353.867,561.768 341.065,547.525 340.667 L 541.549 340.500 540.850 344.500 C 537.689 362.588,537.241 377.785,539.538 389.000 C 542.182 401.901,545.660 408.531,554.500 417.521 C 561.632 424.773,566.245 427.838,576.301 432.006 C 581.485 434.155,581.901 434.560,581.345 436.924 C 577.129 454.843,572.488 471.067,570.024 476.500 C 569.525 477.600,568.820 480.004,568.458 481.843 C 567.903 484.663,568.070 485.132,569.524 484.843 C 572.660 484.220,583.042 452.314,584.704 438.195 C 585.230 433.721,583.257 430.000,580.359 430.000 C 577.887 430.000,565.557 422.864,560.367 418.431 C 554.110 413.085,548.836 405.351,545.261 396.280 C 542.756 389.923,542.586 388.470,542.544 373.000 C 542.516 362.320,542.997 354.258,543.909 350.142 L 545.319 343.785 550.058 344.413 C 561.090 345.877,573.920 355.946,581.385 369.000 C 586.753 378.388,587.214 379.561,587.499 384.564 C 587.769 389.309,589.629 393.288,591.318 392.733 C 593.184 392.120,593.361 384.504,591.551 382.694 C 589.855 380.998,589.365 375.489,591.000 376.500 C 591.550 376.840,592.018 376.304,592.041 375.309 C 592.313 363.233,591.941 336.804,591.414 330.764 C 590.688 322.449,589.972 321.284,584.778 319.977 C 578.951 318.511,567.317 314.194,562.193 311.598 C 543.821 302.288,529.554 284.925,525.549 267.000 C 522.756 254.497,522.185 249.456,523.053 244.958 C 523.526 242.506,523.932 238.117,523.956 235.204 L 524.000 229.908 531.750 234.103 C 544.175 240.829,549.141 244.450,558.691 253.749 C 571.950 266.659,578.168 275.058,580.968 283.841 C 583.071 290.433,585.093 293.241,586.630 291.703 C 587.479 290.855,584.973 280.000,583.929 280.000 C 583.418 280.000,583.000 279.127,583.000 278.059 C 583.000 276.991,582.573 275.854,582.050 275.531 C 581.525 275.206,581.363 272.733,581.688 269.990 C 582.022 267.165,581.834 264.491,581.250 263.768 C 580.687 263.070,579.922 260.475,579.550 258.000 C 579.178 255.525,578.240 251.475,577.465 249.000 C 576.691 246.525,575.112 241.125,573.958 237.000 C 572.803 232.875,571.490 228.600,571.039 227.500 C 570.589 226.400,568.737 221.450,566.925 216.500 C 559.943 197.426,556.734 191.761,549.317 185.414 C 539.348 176.883,522.896 160.189,519.345 155.000 C 517.651 152.525,515.044 148.025,513.550 145.000 C 512.057 141.975,510.453 138.768,509.986 137.873 C 509.519 136.978,508.822 134.503,508.438 132.373 C 508.054 130.243,507.401 128.050,506.988 127.500 C 506.574 126.950,505.924 122.217,505.542 116.981 C 504.900 108.182,505.010 107.257,506.997 104.731 C 508.751 102.501,509.946 102.000,513.514 102.000 C 515.916 102.000,518.124 102.391,518.419 102.869 C 518.714 103.346,520.723 104.020,522.882 104.365 C 532.021 105.827,548.081 117.535,555.115 127.864 C 559.174 133.825,563.706 142.971,565.183 148.181 C 565.872 150.610,566.520 159.940,566.663 169.500 L 566.919 186.500 571.027 198.000 C 573.287 204.325,575.621 211.300,576.214 213.500 C 576.807 215.700,577.625 217.950,578.031 218.500 C 578.437 219.050,579.098 221.075,579.500 223.000 C 579.902 224.925,580.577 226.950,581.000 227.500 C 581.423 228.050,582.072 230.075,582.443 232.000 C 582.813 233.925,583.493 236.400,583.952 237.500 C 586.538 243.686,588.073 249.203,588.423 253.570 C 588.778 257.996,590.892 268.714,592.608 274.791 C 593.440 277.738,595.551 277.051,595.337 273.902 C 594.990 268.801,593.090 256.294,592.009 252.000 C 589.939 243.771,589.673 241.680,590.784 242.367 C 592.118 243.191,593.377 237.764,592.497 234.989 C 591.585 232.116,594.180 212.384,596.968 201.000 C 598.633 194.201,602.278 186.422,608.176 177.081 L 610.966 172.661 615.404 182.081 C 617.844 187.261,620.578 193.975,621.480 197.000 C 622.382 200.025,623.655 204.300,624.310 206.500 C 625.007 208.843,625.500 216.922,625.500 226.000 C 625.500 242.989,624.719 246.812,618.410 260.730 C 614.749 268.805,612.282 272.419,603.701 282.276 C 597.055 289.910,597.241 288.614,600.304 306.000 C 601.128 310.675,602.321 318.100,602.955 322.500 C 603.590 326.900,604.527 332.641,605.038 335.257 C 605.550 337.873,605.693 342.648,605.356 345.869 C 604.720 351.950,605.764 354.194,607.985 351.518 C 608.651 350.715,609.204 348.583,609.214 346.779 C 609.234 343.054,607.472 329.206,605.934 321.000 C 604.398 312.804,601.961 298.077,601.344 293.268 C 600.825 289.222,601.034 288.802,606.054 283.768 C 615.218 274.576,620.571 265.168,626.975 247.000 C 627.654 245.075,628.439 237.425,628.721 230.000 C 629.468 210.287,626.045 195.311,616.606 177.000 C 612.445 168.928,610.544 168.378,605.834 173.881 C 596.389 184.916,590.343 204.929,589.293 228.636 L 588.635 243.500 587.226 238.500 C 582.848 222.957,573.344 194.030,570.750 188.349 C 570.210 187.166,569.677 177.941,569.566 167.849 C 569.367 149.661,569.337 149.436,566.196 142.146 C 561.083 130.280,557.374 124.581,549.892 117.099 C 537.113 104.320,517.722 96.133,507.792 99.325 M262.987 103.644 L 266.282 105.287 265.630 115.240 C 264.687 129.628,261.245 139.512,252.324 153.455 C 247.704 160.675,229.499 179.354,220.080 186.537 C 216.111 189.564,214.180 192.058,211.612 197.479 C 206.051 209.213,193.000 246.688,193.000 250.920 C 193.000 251.844,192.600 253.027,192.111 253.550 C 191.205 254.518,189.714 261.363,187.878 272.986 C 187.314 276.554,186.452 279.721,185.962 280.024 C 184.868 280.700,182.588 290.922,183.359 291.693 C 185.351 293.684,188.561 287.384,190.517 277.644 C 190.841 276.035,191.895 274.579,192.933 274.307 C 193.946 274.042,197.583 270.260,201.016 265.901 C 211.155 253.030,223.446 242.635,237.500 235.048 C 240.800 233.267,244.057 231.351,244.738 230.792 C 246.827 229.076,247.426 232.636,247.464 247.000 C 247.500 260.641,246.979 263.753,242.771 275.000 C 236.442 291.919,219.211 308.408,201.500 314.493 C 198.750 315.438,195.600 316.584,194.500 317.040 C 193.400 317.495,190.700 318.405,188.500 319.062 C 179.825 321.651,180.336 320.996,179.459 330.669 C 179.019 335.526,178.488 349.175,178.280 361.000 C 178.072 372.825,177.811 384.750,177.701 387.500 C 177.545 391.367,177.840 392.500,179.000 392.500 C 180.922 392.500,183.069 386.322,182.380 382.772 C 181.707 379.305,182.742 375.964,184.302 376.562 C 184.962 376.816,186.147 375.555,186.935 373.761 C 193.393 359.069,208.827 345.785,221.162 344.303 L 225.824 343.742 226.479 349.621 C 226.839 352.855,227.599 357.750,228.169 360.500 C 229.944 369.068,228.106 391.043,225.074 397.500 C 224.558 398.600,223.431 401.075,222.570 403.000 C 218.069 413.061,205.980 423.583,192.632 429.059 C 189.329 430.414,186.458 432.292,186.065 433.354 C 185.324 435.357,187.461 449.441,188.900 452.038 C 189.369 452.885,190.084 455.585,190.489 458.038 C 190.895 460.492,191.573 462.950,191.998 463.500 C 192.422 464.050,193.103 466.060,193.512 467.967 C 193.920 469.874,194.609 472.124,195.043 472.967 C 195.477 473.810,196.569 476.300,197.470 478.500 C 198.372 480.700,199.718 483.625,200.463 485.000 C 201.207 486.375,202.151 489.300,202.559 491.500 C 203.907 498.759,207.942 506.392,209.570 504.764 C 210.406 503.927,208.699 494.842,207.476 493.619 C 205.704 491.847,204.642 486.137,205.819 484.709 C 206.367 484.044,207.276 481.025,207.840 478.000 C 210.291 464.842,216.521 456.609,233.849 443.624 C 237.342 441.007,240.286 439.008,240.392 439.183 C 240.499 439.357,241.148 441.525,241.835 444.000 C 242.522 446.475,243.775 450.750,244.618 453.500 C 250.062 471.249,251.224 478.289,251.305 494.000 C 251.375 507.731,251.117 510.293,249.045 516.448 C 246.579 523.772,241.660 532.874,237.490 537.829 C 236.121 539.457,235.000 541.574,235.000 542.534 C 235.000 544.901,252.626 562.743,262.500 570.370 C 287.170 589.427,317.059 603.552,345.000 609.357 C 348.025 609.986,350.977 610.811,351.559 611.191 C 352.142 611.571,356.092 612.197,360.337 612.581 C 364.582 612.966,368.295 613.668,368.587 614.140 C 368.879 614.613,370.666 615.000,372.559 615.000 C 375.532 615.000,376.000 615.329,376.000 617.419 C 376.000 618.750,376.644 622.462,377.431 625.669 C 378.218 628.876,379.157 633.413,379.519 635.750 C 380.109 639.569,379.970 640.000,378.147 640.000 C 377.031 640.000,375.867 639.594,375.561 639.098 C 375.254 638.603,372.190 637.877,368.752 637.487 C 365.313 637.097,362.050 636.428,361.500 636.002 C 360.950 635.575,358.475 634.907,356.000 634.516 C 351.521 633.809,349.744 633.322,334.500 628.624 C 312.209 621.754,287.907 610.722,267.728 598.310 C 237.094 579.469,212.530 553.793,195.204 522.500 C 188.106 509.682,187.332 508.969,181.895 510.255 C 175.994 511.650,154.149 512.355,152.675 511.198 C 152.029 510.691,150.193 509.963,148.596 509.580 C 144.796 508.670,138.525 504.251,133.352 498.840 C 129.421 494.728,119.000 476.195,119.000 473.317 C 119.000 472.578,118.550 471.191,118.000 470.236 C 117.450 469.281,114.969 462.425,112.486 455.000 C 110.003 447.575,106.874 439.266,105.533 436.536 C 104.191 433.806,103.326 431.341,103.609 431.058 C 104.692 429.975,130.104 430.704,131.250 431.850 C 131.883 432.483,133.375 433.000,134.566 433.000 C 135.757 433.000,139.895 434.583,143.763 436.518 C 151.463 440.370,165.000 452.322,165.000 455.269 C 165.000 458.031,170.050 467.000,171.605 467.000 C 173.518 467.000,173.414 466.430,169.372 454.750 C 169.039 453.788,168.330 453.000,167.795 453.000 C 167.212 453.000,167.102 451.358,167.519 448.885 C 167.924 446.491,167.769 443.877,167.148 442.635 C 165.919 440.176,164.089 423.775,163.148 406.796 C 162.792 400.358,162.004 394.598,161.399 393.994 C 160.793 393.391,157.987 392.288,155.164 391.543 C 152.340 390.798,146.986 388.494,143.265 386.422 C 124.274 375.849,113.305 354.072,113.081 326.500 C 113.017 318.527,114.646 301.021,115.535 300.132 C 116.773 298.893,134.258 309.469,140.687 315.345 C 145.528 319.770,155.000 331.716,155.000 333.398 C 155.000 333.753,156.075 335.721,157.389 337.771 C 158.702 339.822,160.072 343.503,160.432 345.950 C 161.127 350.665,162.645 353.338,164.113 352.430 C 165.346 351.668,165.224 345.288,163.931 342.870 C 163.139 341.391,163.197 340.468,164.156 339.313 C 164.867 338.455,165.780 335.221,166.183 332.126 C 167.476 322.200,169.849 307.648,171.014 302.500 C 173.880 289.836,173.923 290.030,166.230 281.127 C 157.796 271.367,152.066 261.855,148.986 252.500 C 147.718 248.650,146.190 244.419,145.590 243.099 C 144.971 241.736,144.507 234.818,144.516 227.099 C 144.536 210.019,146.794 200.320,154.801 182.906 C 156.421 179.383,158.063 175.600,158.450 174.500 C 159.120 172.597,159.260 172.631,161.327 175.203 C 164.595 179.269,171.695 193.768,173.469 200.000 C 176.948 212.219,179.512 242.511,177.828 251.500 C 176.760 257.202,174.907 270.322,174.663 273.902 C 174.398 277.810,176.576 277.370,177.754 273.278 C 179.757 266.314,181.285 257.547,181.462 252.000 C 181.703 244.471,182.860 240.639,184.485 241.988 C 185.444 242.784,185.893 242.074,186.389 238.971 C 186.746 236.739,187.435 234.145,187.921 233.206 C 188.406 232.268,191.176 224.075,194.077 215.000 C 196.977 205.925,199.721 198.072,200.175 197.550 C 200.629 197.027,201.003 195.902,201.006 195.050 C 201.010 194.197,201.718 192.150,202.580 190.500 C 203.821 188.124,204.184 183.551,204.323 168.500 L 204.500 149.500 209.768 138.750 C 216.506 124.999,224.644 116.019,236.388 109.374 C 240.850 106.850,246.198 104.548,248.274 104.258 C 250.350 103.968,252.289 103.341,252.583 102.865 C 253.465 101.438,259.466 101.887,262.987 103.644 M377.500 140.608 C 370.030 142.490,361.519 147.540,353.500 154.850 C 347.825 160.023,342.444 165.661,318.268 191.763 L 308.036 202.810 313.221 213.150 C 318.759 224.195,320.880 231.942,321.690 244.080 C 322.097 250.171,321.882 251.975,320.598 253.259 C 319.719 254.138,319.000 255.859,319.000 257.084 C 319.000 259.247,319.057 259.258,321.000 257.500 C 322.100 256.505,323.000 254.961,323.000 254.070 C 323.000 252.464,336.811 238.000,338.345 238.000 C 338.783 238.000,344.094 242.500,350.147 248.000 C 356.199 253.500,361.526 258.000,361.985 258.000 C 362.444 258.000,367.698 253.513,373.660 248.029 C 379.622 242.545,384.830 238.045,385.234 238.029 C 385.638 238.013,390.741 242.387,396.573 247.750 C 402.405 253.113,407.706 257.625,408.353 257.778 C 408.999 257.931,414.320 253.543,420.176 248.028 C 426.032 242.513,431.227 238.000,431.721 238.000 C 433.651 238.000,448.030 252.759,447.484 254.181 C 447.179 254.976,447.845 256.455,448.965 257.468 C 450.964 259.278,451.000 259.262,451.000 256.584 C 451.000 255.084,450.325 253.182,449.500 252.357 C 445.518 248.376,449.382 227.658,456.887 212.743 L 461.913 202.753 451.707 191.711 C 415.342 152.366,410.343 147.794,397.500 142.119 C 394.381 140.742,380.989 139.730,377.500 140.608 M398.500 148.430 C 408.513 153.124,414.770 158.739,436.427 182.467 L 455.625 203.500 451.788 211.710 C 448.215 219.356,444.546 231.642,443.814 238.409 L 443.500 241.318 439.000 237.186 C 432.453 231.174,430.398 231.477,421.643 239.750 C 417.715 243.463,413.122 247.741,411.438 249.257 L 408.377 252.013 398.111 242.507 C 390.183 235.164,387.203 233.000,385.021 233.000 C 382.818 233.000,379.962 235.124,372.038 242.659 L 361.879 252.318 356.190 246.858 C 339.692 231.026,338.581 230.580,331.616 237.000 C 329.229 239.200,326.989 241.000,326.638 241.000 C 326.287 241.000,325.993 239.762,325.985 238.250 C 325.957 233.214,322.085 219.997,318.206 211.698 L 314.375 203.500 333.573 182.467 C 354.204 159.864,361.233 153.426,370.254 148.872 C 381.484 143.203,387.160 143.114,398.500 148.430 M380.036 149.950 C 378.881 151.572,376.780 155.423,375.368 158.508 C 372.244 165.331,371.894 176.563,374.465 187.500 C 376.561 196.418,377.460 210.009,376.085 212.000 C 375.178 213.313,374.583 213.251,371.305 211.500 C 365.725 208.518,362.744 203.542,363.535 198.527 C 363.884 196.312,365.039 192.785,366.100 190.690 C 367.904 187.130,367.933 186.505,366.551 181.190 C 364.399 172.912,360.049 169.884,356.218 173.996 C 351.379 179.191,350.123 183.891,350.473 195.500 C 350.881 209.017,352.473 213.442,359.059 219.363 C 365.333 225.004,370.490 226.404,385.000 226.404 C 399.510 226.404,404.667 225.004,410.941 219.363 C 417.527 213.442,419.119 209.017,419.527 195.500 C 419.877 183.891,418.621 179.191,413.782 173.996 C 409.951 169.884,405.601 172.912,403.449 181.190 C 402.067 186.505,402.096 187.130,403.900 190.690 C 404.961 192.785,406.116 196.312,406.465 198.527 C 407.256 203.542,404.275 208.518,398.695 211.500 C 395.417 213.251,394.822 213.313,393.915 212.000 C 392.539 210.010,393.513 194.951,395.506 187.375 C 396.357 184.144,397.065 177.544,397.081 172.710 C 397.105 165.396,396.686 162.993,394.587 158.409 C 390.639 149.786,388.298 147.000,385.000 147.000 C 382.970 147.000,381.524 147.859,380.036 149.950 M389.342 158.794 C 393.521 167.699,394.089 174.488,391.451 184.000 C 389.715 190.262,388.368 210.347,389.407 214.486 C 390.075 217.149,390.279 217.225,395.591 216.784 C 401.416 216.301,404.901 214.355,408.438 209.611 C 411.237 205.858,411.357 193.835,408.637 189.783 C 407.219 187.671,406.970 186.112,407.520 182.783 C 408.685 175.721,409.966 175.205,412.742 180.679 C 414.951 185.038,415.132 186.423,414.830 196.632 C 414.514 207.323,414.363 208.001,411.368 212.156 C 409.396 214.892,406.249 217.512,402.868 219.233 C 397.869 221.779,396.642 221.966,385.000 221.966 C 373.358 221.966,372.131 221.779,367.132 219.233 C 363.751 217.512,360.604 214.892,358.632 212.156 C 355.637 208.001,355.486 207.323,355.170 196.632 C 354.868 186.423,355.049 185.038,357.258 180.679 C 360.034 175.205,361.315 175.721,362.480 182.783 C 363.030 186.112,362.781 187.671,361.363 189.783 C 358.643 193.835,358.763 205.858,361.562 209.611 C 365.099 214.355,368.584 216.301,374.409 216.784 C 379.726 217.225,379.924 217.151,380.596 214.473 C 381.640 210.316,380.243 190.262,378.474 184.000 C 375.760 174.392,376.283 168.117,380.558 159.008 C 382.624 154.603,384.623 151.000,385.000 151.000 C 385.377 151.000,387.331 154.507,389.342 158.794 M327.462 266.750 C 320.455 273.608,317.095 277.686,316.135 280.500 C 313.879 287.111,312.172 290.970,306.337 302.652 C 303.274 308.785,300.932 314.266,301.134 314.832 C 301.759 316.588,319.123 332.000,320.476 332.000 C 321.179 332.000,322.321 331.318,323.012 330.485 C 323.704 329.652,328.278 325.311,333.176 320.839 L 342.083 312.708 351.902 322.354 C 357.302 327.659,362.414 332.000,363.262 332.000 C 364.110 332.000,369.347 327.680,374.901 322.399 L 384.998 312.798 395.366 322.399 C 401.068 327.680,406.369 332.000,407.146 332.000 C 407.922 332.000,411.470 329.041,415.029 325.424 C 418.588 321.807,423.132 317.538,425.127 315.937 L 428.755 313.026 439.014 322.513 C 444.657 327.731,449.715 332.000,450.255 332.000 C 451.690 332.000,468.997 315.988,469.017 314.642 C 469.026 314.014,466.467 308.325,463.330 302.000 C 457.365 289.972,457.306 289.838,453.994 281.000 C 452.322 276.536,450.125 273.758,442.330 266.250 C 437.047 261.163,432.225 257.003,431.613 257.008 C 431.001 257.012,425.775 261.501,420.000 266.984 C 414.225 272.466,408.944 276.963,408.264 276.976 C 407.584 276.989,402.356 272.500,396.646 267.000 C 390.935 261.500,385.689 257.000,384.987 257.000 C 384.285 257.000,379.137 261.500,373.548 267.000 C 367.959 272.500,362.737 276.989,361.943 276.975 C 361.149 276.961,355.875 272.461,350.221 266.975 C 344.568 261.489,339.376 257.000,338.684 257.000 C 337.991 257.000,332.942 261.387,327.462 266.750 M350.215 273.722 C 361.880 284.801,361.903 284.800,374.945 272.455 L 385.030 262.909 395.476 272.455 C 403.119 279.439,406.626 282.000,408.548 282.000 C 410.386 282.000,413.170 280.136,417.837 275.779 C 421.501 272.357,426.122 268.055,428.103 266.219 L 431.707 262.880 439.785 270.480 C 446.862 277.137,448.125 278.865,449.973 284.418 C 451.133 287.904,454.663 295.988,457.818 302.383 L 463.553 314.009 458.527 318.812 C 449.672 327.273,451.127 327.372,441.023 317.632 C 429.117 306.154,428.832 306.154,416.304 317.654 L 406.876 326.309 401.688 321.348 C 385.720 306.077,385.024 305.933,374.643 315.768 C 370.715 319.490,366.498 323.376,365.272 324.403 L 363.045 326.270 353.971 317.635 C 341.905 306.153,341.577 306.152,329.261 317.574 L 320.021 326.143 313.511 320.322 C 309.931 317.120,307.001 314.218,307.001 313.873 C 307.000 313.528,309.461 308.128,312.468 301.873 C 315.476 295.618,318.843 287.800,319.951 284.500 C 321.694 279.311,323.082 277.463,330.222 270.826 C 336.971 264.552,338.754 263.361,339.989 264.298 C 340.820 264.928,345.422 269.169,350.215 273.722 M649.000 298.327 C 636.302 303.650,623.245 314.707,615.004 327.114 C 610.607 333.734,608.469 340.676,611.097 339.802 C 611.869 339.545,614.278 336.222,616.450 332.417 C 622.117 322.494,634.348 310.785,645.808 304.313 C 654.610 299.342,655.013 299.217,655.453 301.313 C 656.772 307.592,657.237 313.681,657.261 325.000 C 657.310 347.539,652.297 363.165,641.154 375.200 C 633.301 383.683,625.750 388.394,614.236 391.996 C 611.890 392.729,609.505 393.892,608.934 394.579 C 608.364 395.267,607.510 403.046,607.037 411.866 C 606.564 420.687,605.943 428.283,605.656 428.747 C 605.369 429.211,604.598 434.520,603.941 440.545 C 603.246 446.917,601.996 452.964,600.953 455.000 C 599.144 458.531,597.000 464.577,597.000 466.149 C 597.000 468.548,600.074 466.478,602.048 462.750 C 604.206 458.672,604.616 456.978,605.421 448.830 C 605.621 446.811,606.078 444.683,606.437 444.101 C 607.218 442.839,609.862 419.551,610.819 405.514 L 611.500 395.528 615.000 394.896 C 621.922 393.645,633.887 387.025,640.849 380.593 C 645.287 376.493,652.417 365.537,654.990 358.862 C 658.221 350.480,660.999 334.455,660.946 324.500 C 660.884 312.782,658.051 296.617,656.000 296.273 C 655.175 296.135,652.025 297.059,649.000 298.327 M331.500 340.550 C 326.000 345.703,320.898 349.938,320.163 349.960 C 319.427 349.982,314.482 345.950,309.173 341.000 C 303.864 336.050,298.834 332.000,297.996 332.000 C 297.158 332.000,293.441 334.736,289.736 338.080 L 283.000 344.159 283.000 356.496 C 283.000 363.282,282.583 368.983,282.074 369.167 C 280.758 369.640,279.559 375.000,280.769 375.000 C 282.255 375.000,284.260 372.220,284.387 369.986 C 284.529 367.490,290.894 359.271,293.329 358.440 C 295.142 357.820,295.836 358.448,308.740 372.391 L 312.341 376.281 316.420 371.849 C 318.664 369.411,322.437 365.298,324.805 362.708 C 327.173 360.119,329.634 358.000,330.275 358.000 C 330.915 358.000,335.377 362.163,340.189 367.250 L 348.939 376.500 354.720 370.017 C 357.899 366.452,361.942 361.952,363.705 360.017 L 366.909 356.500 371.695 362.000 C 374.328 365.025,378.398 369.525,380.741 372.000 L 385.000 376.500 389.259 372.000 C 391.602 369.525,395.671 365.025,398.302 362.000 L 403.085 356.500 406.793 360.513 C 408.832 362.720,412.871 367.220,415.768 370.513 L 421.036 376.500 429.799 367.250 C 434.618 362.163,438.997 357.984,439.530 357.964 C 440.064 357.944,444.350 362.048,449.056 367.083 L 457.613 376.238 462.736 370.869 C 465.553 367.916,469.599 363.557,471.726 361.183 L 475.593 356.866 478.425 359.683 C 482.980 364.214,486.218 368.838,485.571 369.884 C 485.241 370.418,486.138 372.125,487.563 373.678 L 490.154 376.500 489.554 373.000 C 489.225 371.075,488.515 369.350,487.977 369.167 C 487.412 368.974,487.000 363.641,487.000 356.510 L 487.000 344.187 479.881 337.597 C 471.604 329.933,473.687 329.452,459.725 342.250 C 455.075 346.512,450.829 350.000,450.289 350.000 C 449.749 350.000,444.894 345.950,439.500 341.000 C 434.106 336.050,429.104 332.000,428.385 332.000 C 427.666 332.000,422.767 336.050,417.500 341.000 C 412.233 345.950,407.378 349.997,406.712 349.992 C 406.045 349.988,400.893 345.681,395.263 340.421 L 385.025 330.858 375.023 340.429 C 369.522 345.693,364.356 350.000,363.544 350.000 C 362.731 350.000,357.953 346.063,352.927 341.250 C 347.900 336.438,343.273 332.203,342.644 331.840 C 341.993 331.465,337.189 335.219,331.500 340.550 M307.642 346.500 C 319.925 357.615,319.998 357.615,332.087 346.473 C 337.176 341.783,341.647 338.071,342.023 338.223 C 342.398 338.375,346.809 342.342,351.825 347.039 L 360.944 355.577 354.791 362.604 L 348.638 369.631 342.868 362.926 C 336.308 355.305,332.455 352.002,330.115 351.995 C 329.227 351.992,324.858 355.855,320.407 360.579 L 312.315 369.169 304.995 361.063 C 297.212 352.442,294.360 350.879,290.743 353.249 C 288.540 354.692,288.498 354.639,288.404 350.345 C 288.317 346.416,288.747 345.566,292.631 341.986 C 295.010 339.794,297.246 338.000,297.602 338.000 C 297.958 338.000,302.476 341.825,307.642 346.500 M393.441 345.334 L 401.031 352.169 398.254 354.834 C 396.727 356.300,393.126 360.200,390.252 363.500 L 385.027 369.500 379.263 363.000 C 376.094 359.425,372.509 355.600,371.299 354.500 L 369.097 352.500 376.799 345.302 C 381.034 341.343,384.804 338.193,385.176 338.302 C 385.548 338.411,389.267 341.575,393.441 345.334 M438.338 346.497 C 449.726 357.059,450.467 357.150,459.724 349.129 C 463.451 345.900,467.591 342.075,468.924 340.629 C 470.258 339.183,471.854 338.000,472.471 338.000 C 473.089 338.000,475.373 339.822,477.547 342.048 C 480.889 345.470,481.519 346.790,481.624 350.580 C 481.748 355.060,481.745 355.063,479.409 353.532 C 478.123 352.690,476.298 352.000,475.354 352.000 C 474.410 352.000,470.007 355.856,465.569 360.570 L 457.500 369.139 450.241 361.134 C 446.248 356.731,442.102 352.850,441.028 352.509 C 438.085 351.575,435.752 353.272,428.204 361.838 L 421.317 369.653 415.564 362.907 C 412.399 359.197,409.856 355.903,409.912 355.588 C 410.042 354.856,428.036 338.000,428.688 338.000 C 428.956 338.000,433.299 341.824,438.338 346.497 M288.678 380.914 C 283.747 386.185,282.667 388.777,283.176 394.112 L 283.500 397.500 385.000 397.500 L 486.500 397.500 486.818 393.621 C 487.245 388.418,485.724 385.127,480.544 380.043 C 477.460 377.016,475.791 376.033,474.772 376.643 C 473.983 377.114,469.853 381.438,465.595 386.250 C 461.336 391.063,457.725 395.000,457.570 395.000 C 457.415 395.000,453.582 390.725,449.052 385.500 C 440.920 376.120,438.865 374.697,437.300 377.360 C 436.860 378.108,433.056 382.410,428.847 386.921 L 421.195 395.123 417.347 390.837 C 415.231 388.479,411.154 384.064,408.286 381.025 L 403.072 375.500 394.036 385.000 L 385.000 394.500 376.059 385.078 C 365.736 374.200,367.591 374.064,356.625 386.500 C 352.745 390.900,349.272 394.500,348.908 394.500 C 348.543 394.500,344.495 390.450,339.912 385.500 C 335.329 380.550,331.082 376.370,330.473 376.212 C 329.865 376.054,325.583 380.255,320.958 385.548 L 312.550 395.171 309.025 391.294 C 297.329 378.430,294.968 376.000,294.165 376.000 C 293.675 376.000,291.205 378.211,288.678 380.914 M298.873 387.478 C 301.143 389.940,303.001 392.303,303.002 392.728 C 303.004 393.152,299.629 393.352,295.502 393.171 C 288.997 392.886,288.000 392.597,288.000 390.998 C 288.000 389.108,292.553 383.000,293.962 383.000 C 294.393 383.000,296.603 385.015,298.873 387.478 M335.548 387.750 C 337.953 390.363,339.939 392.725,339.963 393.000 C 339.986 393.275,335.719 393.356,330.482 393.181 L 320.959 392.862 325.230 387.976 C 327.578 385.289,329.877 383.070,330.338 383.045 C 330.798 383.020,333.143 385.137,335.548 387.750 M371.903 388.000 L 376.119 393.000 367.060 393.000 C 362.077 393.000,358.000 392.765,358.000 392.478 C 358.000 391.643,366.181 383.000,366.971 383.000 C 367.365 383.000,369.584 385.250,371.903 388.000 M407.873 387.478 C 410.143 389.940,412.000 392.190,412.000 392.478 C 412.000 392.765,407.923 393.000,402.940 393.000 L 393.881 393.000 398.097 388.000 C 400.416 385.250,402.635 383.000,403.029 383.000 C 403.423 383.000,405.603 385.015,407.873 387.478 M444.770 387.976 L 449.041 392.862 439.518 393.181 C 434.281 393.356,429.997 393.346,429.998 393.158 C 430.004 392.233,438.633 383.090,439.500 383.090 C 440.050 383.090,442.422 385.289,444.770 387.976 M479.411 386.077 C 480.835 387.769,482.000 389.983,482.000 390.998 C 482.000 392.597,481.003 392.886,474.498 393.171 C 470.371 393.352,466.996 393.152,466.998 392.728 C 467.001 391.673,475.061 383.000,476.038 383.000 C 476.470 383.000,477.987 384.385,479.411 386.077 M284.200 419.200 C 282.855 420.545,282.447 469.697,283.765 471.511 C 284.169 472.066,286.975 473.598,290.000 474.915 C 301.116 479.754,313.719 486.039,318.545 489.150 C 340.953 503.595,351.545 511.829,370.125 529.250 C 378.191 536.813,385.019 543.000,385.298 543.000 C 385.577 543.000,390.911 538.000,397.152 531.889 C 408.627 520.653,426.501 505.784,437.500 498.323 C 453.878 487.214,460.534 483.473,475.500 476.970 C 481.000 474.580,485.831 472.146,486.235 471.562 C 487.553 469.657,487.145 420.545,485.800 419.200 C 484.059 417.459,285.941 417.459,284.200 419.200 M481.214 446.012 L 481.500 469.023 474.000 472.106 C 450.443 481.787,424.399 499.818,395.786 526.256 L 385.072 536.156 373.200 525.265 C 344.877 499.283,317.453 480.688,292.500 470.549 L 288.500 468.924 288.786 445.962 L 289.072 423.000 385.000 423.000 L 480.928 423.000 481.214 446.012 M642.500 427.598 C 633.747 429.635,627.802 431.643,622.871 434.228 C 617.009 437.301,607.000 446.393,607.000 448.645 C 607.000 451.558,609.169 450.664,614.477 445.565 C 620.204 440.062,630.481 434.302,638.977 431.832 C 643.601 430.487,665.407 430.074,666.640 431.307 C 667.015 431.682,666.621 433.453,665.766 435.244 C 663.325 440.355,662.305 442.963,659.604 451.000 C 647.351 487.470,641.536 498.052,629.500 505.780 C 621.946 510.631,616.434 512.000,604.464 512.000 C 598.379 512.000,592.972 511.609,592.450 511.130 C 591.927 510.652,589.858 510.012,587.850 509.709 C 584.925 509.268,583.783 509.602,582.100 511.394 C 580.945 512.623,580.000 514.006,580.000 514.466 C 580.000 516.444,566.703 538.305,560.505 546.517 C 553.675 555.566,537.094 572.741,526.935 581.290 C 512.087 593.785,485.587 609.525,466.000 617.484 C 462.425 618.936,458.082 620.772,456.349 621.562 C 454.616 622.353,452.697 623.000,452.085 623.000 C 451.473 623.000,449.966 623.520,448.736 624.156 C 444.558 626.316,443.438 626.745,440.000 627.500 C 438.111 627.915,435.876 628.616,435.033 629.059 C 434.190 629.501,431.475 630.384,429.000 631.019 C 414.387 634.771,407.776 636.309,401.828 637.342 C 398.159 637.979,394.821 638.837,394.412 639.250 C 394.002 639.663,392.853 640.000,391.858 640.000 C 390.359 640.000,390.155 639.446,390.666 636.750 C 391.005 634.962,391.617 632.825,392.026 632.000 C 392.436 631.175,393.097 627.575,393.497 624.000 C 394.312 616.705,395.251 615.000,398.456 615.000 C 399.672 615.000,401.002 614.663,401.413 614.250 C 401.823 613.837,405.836 612.980,410.329 612.344 C 446.551 607.221,483.154 591.125,511.868 567.692 C 520.551 560.606,533.142 547.972,535.022 544.458 C 536.227 542.208,536.058 541.602,533.156 537.742 C 528.707 531.826,522.783 520.450,521.052 514.500 C 518.281 504.976,519.413 474.109,522.903 464.000 C 523.378 462.625,525.239 456.775,527.038 451.000 C 528.838 445.225,530.426 440.352,530.567 440.171 C 531.085 439.509,544.632 449.022,549.121 453.199 C 555.049 458.716,560.393 467.141,561.997 473.500 C 564.039 481.598,564.411 491.732,562.728 493.415 C 561.355 494.787,559.520 503.853,560.430 504.764 C 561.379 505.712,563.252 503.579,564.951 499.613 C 567.166 494.447,567.324 488.597,565.546 477.611 C 563.088 462.429,555.918 452.567,539.133 441.283 C 532.613 436.899,530.411 435.882,529.157 436.673 C 527.504 437.716,523.749 446.398,521.881 453.500 C 515.505 477.730,514.787 482.434,515.239 496.987 C 515.658 510.457,516.872 516.442,520.920 525.000 C 523.129 529.670,527.769 536.976,530.269 539.719 L 532.291 541.939 528.601 546.442 C 524.731 551.165,512.314 562.728,505.500 567.956 C 477.593 589.363,441.905 604.009,403.000 610.021 C 391.810 611.751,391.241 612.101,390.518 617.697 C 390.177 620.339,389.246 625.593,388.449 629.373 C 387.652 633.153,387.000 637.828,387.000 639.762 L 387.000 643.279 391.750 642.618 C 407.573 640.417,443.850 630.465,457.414 624.605 C 459.111 623.872,462.525 622.465,465.000 621.480 C 477.609 616.459,505.619 601.229,514.899 594.347 C 543.922 572.828,562.602 551.856,579.913 521.358 L 585.102 512.217 590.801 513.768 C 603.140 517.126,618.007 515.576,629.211 509.764 C 633.818 507.374,644.292 496.305,646.988 490.976 C 648.095 488.789,649.882 485.260,650.959 483.133 C 652.037 481.006,653.631 477.293,654.502 474.883 C 659.397 461.331,664.234 447.181,664.716 445.000 C 665.020 443.625,665.591 442.050,665.986 441.500 C 666.381 440.950,667.535 438.137,668.550 435.248 C 671.125 427.924,670.530 427.541,656.200 427.316 C 649.765 427.215,643.600 427.342,642.500 427.598 M309.340 434.826 C 299.134 442.896,295.800 450.720,299.814 457.183 C 302.022 460.738,307.940 466.661,311.973 469.351 C 313.332 470.258,316.353 471.000,318.686 471.000 C 322.490 471.000,323.588 470.382,329.341 465.000 L 335.755 459.000 351.669 459.000 L 367.584 459.000 372.042 463.580 C 377.336 469.019,380.795 471.000,385.000 471.000 C 389.205 471.000,392.664 469.019,397.958 463.580 L 402.416 459.000 418.331 459.000 L 434.245 459.000 440.659 465.000 C 446.412 470.382,447.510 471.000,451.314 471.000 C 453.647 471.000,456.668 470.258,458.027 469.351 C 462.060 466.661,467.978 460.738,470.186 457.183 C 474.200 450.720,470.866 442.896,460.660 434.826 C 452.838 428.642,446.884 429.942,437.563 439.871 L 434.626 443.000 418.468 443.000 C 403.204 443.000,402.205 442.881,400.405 440.855 C 399.357 439.675,396.322 436.975,393.660 434.855 C 389.949 431.899,387.930 431.000,385.000 431.000 C 382.070 431.000,380.051 431.899,376.340 434.855 C 373.678 436.975,370.643 439.675,369.595 440.855 C 367.795 442.882,366.796 443.000,351.500 443.000 C 336.204 443.000,335.205 442.882,333.405 440.855 C 332.357 439.675,329.322 436.975,326.660 434.855 C 320.052 429.591,315.970 429.584,309.340 434.826 M323.054 437.822 C 325.499 439.375,328.760 442.300,330.301 444.322 L 333.102 448.000 351.179 448.000 L 369.257 448.000 376.147 441.500 C 379.937 437.925,383.921 435.000,385.000 435.000 C 386.079 435.000,390.063 437.925,393.853 441.500 L 400.743 448.000 418.788 448.000 L 436.832 448.000 440.010 443.987 C 441.759 441.779,445.166 438.815,447.583 437.398 L 451.978 434.823 455.475 436.985 C 459.476 439.457,468.000 448.827,468.000 450.753 C 468.000 455.464,456.871 466.333,452.047 466.333 C 448.955 466.333,442.950 462.143,439.896 457.854 L 437.864 455.000 418.711 455.000 L 399.558 455.000 393.832 460.667 C 389.342 465.109,387.435 466.333,385.000 466.333 C 382.565 466.333,380.658 465.109,376.168 460.667 L 370.442 455.000 351.656 455.000 L 332.870 455.000 328.000 460.000 C 321.730 466.437,318.940 467.540,314.390 465.381 C 310.367 463.472,303.215 455.704,302.366 452.322 C 301.926 450.567,302.724 448.822,305.541 445.385 C 308.983 441.184,316.375 435.000,317.954 435.000 C 318.314 435.000,320.609 436.270,323.054 437.822 M68.517 515.973 C 67.728 517.250,64.478 526.612,61.566 536.000 C 58.202 546.843,56.600 561.710,57.258 575.978 L 57.817 588.120 53.747 591.068 C 51.509 592.690,47.837 594.542,45.589 595.183 C 43.340 595.825,40.868 596.834,40.096 597.425 C 39.207 598.106,31.627 598.500,19.420 598.500 L 0.148 598.500 0.231 601.428 C 0.312 604.278,6.657 617.911,11.227 625.052 C 12.477 627.006,14.850 630.772,16.500 633.422 C 29.533 654.354,61.289 686.352,90.912 708.404 C 94.536 711.101,97.725 713.591,98.000 713.938 C 99.222 715.480,104.377 719.000,105.413 719.000 C 106.041 719.000,110.170 715.713,114.588 711.696 C 119.006 707.678,124.304 703.107,126.362 701.538 L 130.103 698.684 134.301 702.645 C 140.780 708.757,151.600 718.005,158.371 723.220 C 161.742 725.816,165.075 728.433,165.778 729.036 C 166.481 729.638,169.856 731.990,173.278 734.262 C 176.700 736.534,179.950 738.764,180.500 739.217 C 182.963 741.246,195.511 748.867,206.500 755.007 C 217.691 761.260,224.578 764.697,239.500 771.471 C 250.751 776.580,251.803 777.000,253.342 777.000 C 254.189 777.000,255.129 777.400,255.432 777.889 C 255.734 778.378,257.223 779.069,258.741 779.425 C 260.258 779.781,263.750 780.893,266.500 781.897 C 280.780 787.111,310.758 795.000,316.289 795.000 C 317.709 795.000,320.011 795.434,321.405 795.964 C 327.458 798.265,355.122 799.993,385.500 799.967 C 415.496 799.942,436.320 798.656,449.790 795.999 C 465.973 792.807,481.903 788.902,491.500 785.776 C 493.150 785.239,495.850 784.437,497.500 783.995 C 501.630 782.888,519.798 776.272,523.651 774.472 C 525.384 773.662,527.036 773.000,527.321 773.000 C 528.638 773.000,552.752 760.974,563.769 754.823 C 588.298 741.128,607.001 727.891,628.276 709.167 L 640.052 698.803 643.716 701.597 C 645.731 703.134,650.994 707.678,655.412 711.696 C 659.830 715.713,663.959 719.000,664.587 719.000 C 665.570 719.000,670.495 715.686,672.000 714.013 C 672.275 713.707,675.650 711.021,679.500 708.043 C 705.792 687.711,730.138 664.706,742.742 648.284 C 749.961 638.878,750.039 638.765,758.796 625.086 C 762.891 618.689,770.000 603.333,770.000 600.884 L 770.000 598.500 750.654 598.500 C 737.964 598.500,730.824 598.117,729.904 597.388 C 729.132 596.776,727.150 595.954,725.500 595.561 C 720.938 594.475,712.179 589.149,711.775 587.215 C 711.577 586.272,711.753 583.700,712.165 581.500 C 713.832 572.586,712.865 555.793,709.890 542.000 C 707.548 531.139,702.049 515.956,700.202 515.247 C 698.713 514.676,697.071 516.197,692.299 522.563 C 671.388 550.469,649.426 574.118,622.037 598.223 L 609.574 609.191 602.244 601.596 C 598.212 597.418,594.331 594.000,593.618 594.000 C 592.906 594.000,589.368 597.712,585.757 602.250 C 572.199 619.286,544.868 643.492,527.327 654.000 C 501.226 669.636,488.216 675.874,466.584 683.127 C 454.787 687.083,452.105 687.795,438.500 690.584 C 434.650 691.374,429.250 692.482,426.500 693.047 C 416.953 695.010,404.394 695.858,385.000 695.849 C 358.524 695.838,350.388 694.874,319.928 688.138 C 310.788 686.117,290.629 678.912,278.211 673.228 C 265.020 667.190,241.553 653.812,232.000 646.883 C 214.743 634.367,193.050 613.974,182.928 600.750 C 180.086 597.038,177.123 594.000,176.344 594.000 C 175.565 594.000,171.648 597.443,167.639 601.652 L 160.351 609.303 147.971 598.402 C 124.057 577.343,102.304 554.400,84.712 531.683 C 82.079 528.282,79.371 524.825,78.695 524.000 C 78.019 523.175,76.183 520.813,74.614 518.750 C 71.796 515.044,69.685 514.082,68.517 515.973 M77.240 526.750 C 80.776 531.563,84.828 536.850,86.244 538.500 C 87.660 540.150,92.307 545.707,96.572 550.849 C 110.202 567.284,154.932 610.317,159.725 611.606 C 161.544 612.095,163.277 610.805,169.225 604.535 L 176.500 596.865 181.696 603.732 C 187.961 612.012,211.162 634.865,219.500 640.968 C 222.800 643.384,225.725 645.660,226.000 646.026 C 228.130 648.865,257.050 666.498,271.000 673.463 C 290.675 683.287,316.816 691.457,343.500 696.123 C 355.051 698.143,359.731 698.393,385.500 698.365 C 410.696 698.339,416.074 698.053,426.500 696.185 C 447.982 692.337,467.177 686.913,485.500 679.511 C 494.281 675.964,518.886 663.487,523.959 660.008 C 525.357 659.050,530.325 655.699,535.000 652.561 C 539.675 649.424,546.200 644.770,549.500 642.220 C 557.342 636.162,581.780 612.225,588.266 604.250 C 591.062 600.813,593.729 598.000,594.192 598.000 C 594.656 598.000,598.007 601.150,601.639 605.000 C 605.271 608.850,608.920 612.000,609.749 612.000 C 612.274 612.000,627.396 598.538,648.503 577.500 C 667.687 558.379,684.157 539.455,694.532 524.613 L 699.346 517.726 700.586 521.613 C 701.269 523.751,702.986 528.650,704.402 532.500 C 708.449 543.500,710.299 558.146,709.719 574.572 C 709.435 582.601,709.628 589.371,710.169 590.337 C 711.451 592.629,720.993 597.333,729.762 599.996 C 736.111 601.925,738.769 602.141,752.477 601.840 C 761.016 601.653,768.001 601.518,768.001 601.539 C 767.976 602.669,756.810 622.463,749.500 634.335 C 741.487 647.349,719.984 670.691,702.058 685.834 C 686.740 698.774,687.932 697.789,675.704 707.600 L 664.907 716.261 662.704 714.302 C 651.382 704.234,643.467 697.714,641.448 696.794 C 639.264 695.799,638.493 696.177,633.711 700.595 C 606.937 725.323,578.485 744.859,545.500 761.163 C 538.350 764.698,529.350 768.873,525.500 770.441 C 521.650 772.010,517.150 773.882,515.500 774.602 C 498.365 782.077,458.848 792.119,430.500 796.203 C 418.110 797.988,351.890 797.988,339.500 796.203 C 313.916 792.518,288.663 786.444,266.500 778.646 C 241.388 769.811,231.995 765.580,209.000 752.748 C 203.225 749.525,197.150 746.067,195.500 745.064 C 179.053 735.061,176.824 733.547,163.172 723.097 C 152.942 715.267,148.309 711.298,138.354 701.840 C 134.973 698.628,131.576 696.000,130.804 696.000 C 129.395 696.000,120.540 702.788,114.000 708.882 C 112.075 710.676,109.304 713.012,107.842 714.074 L 105.185 716.005 96.842 709.304 C 92.254 705.619,86.025 700.630,83.000 698.217 C 47.156 669.635,23.999 643.303,8.498 613.500 C 5.923 608.550,3.408 604.072,2.908 603.550 C 2.409 603.027,2.000 602.352,1.999 602.050 C 1.999 601.747,8.961 601.653,17.471 601.839 C 31.221 602.141,33.809 601.926,40.722 599.909 C 48.633 597.601,57.857 593.083,60.047 590.443 C 60.930 589.379,61.066 586.042,60.549 578.069 C 59.475 561.505,61.369 546.002,66.116 532.500 C 68.243 526.450,69.987 520.712,69.991 519.750 C 69.996 518.788,70.182 518.000,70.405 518.000 C 70.628 518.000,73.704 521.938,77.240 526.750 M144.957 628.750 C 137.668 636.862,126.258 649.502,119.602 656.838 L 107.500 670.176 106.867 679.838 C 106.520 685.152,106.196 694.675,106.149 701.000 C 106.075 710.926,106.251 712.253,107.430 710.697 C 108.347 709.489,109.035 704.135,109.520 694.447 C 109.917 686.501,110.606 680.000,111.052 680.000 C 111.498 680.000,114.248 682.742,117.163 686.094 C 122.191 691.875,127.534 695.800,128.737 694.597 C 129.040 694.294,125.735 690.170,121.394 685.433 C 110.882 673.963,109.705 672.339,110.686 670.654 C 111.134 669.885,115.588 664.811,120.584 659.378 C 128.894 650.341,154.869 621.454,159.405 616.205 C 160.994 614.366,161.053 614.000,159.760 614.000 C 158.907 614.000,152.246 620.638,144.957 628.750 M612.121 617.942 C 616.929 623.550,647.118 657.297,648.417 658.516 C 652.351 662.208,660.000 671.057,660.000 671.916 C 660.000 672.486,655.837 677.493,650.750 683.044 C 645.663 688.594,641.370 693.496,641.210 693.937 C 641.051 694.377,642.085 694.515,643.508 694.243 C 645.061 693.946,648.572 691.007,652.297 686.884 C 655.709 683.108,658.783 680.015,659.129 680.010 C 659.475 680.004,660.083 686.501,660.480 694.447 C 660.965 704.135,661.653 709.489,662.570 710.697 C 663.750 712.255,663.924 711.002,663.846 701.500 C 663.796 695.450,663.473 685.930,663.127 680.345 L 662.500 670.190 650.419 656.845 C 643.774 649.505,632.364 636.862,625.064 628.750 C 617.764 620.638,611.104 614.000,610.266 614.000 C 609.213 614.000,609.787 615.221,612.121 617.942 M168.000 624.995 C 162.775 629.360,158.368 633.551,158.207 634.308 C 158.046 635.065,158.622 636.271,159.486 636.989 C 160.808 638.085,161.423 637.951,163.344 636.147 C 165.675 633.956,171.383 633.192,172.455 634.927 C 172.770 635.437,172.122 638.154,171.014 640.964 C 169.906 643.775,169.000 646.864,169.000 647.829 C 169.000 648.794,170.970 651.517,173.378 653.880 C 177.700 658.122,177.794 658.158,180.723 656.643 C 183.654 655.128,183.740 655.160,187.717 659.304 C 191.261 662.997,191.644 663.848,190.918 666.402 C 190.432 668.109,190.499 670.064,191.081 671.152 C 193.042 674.815,193.309 674.387,201.401 654.601 C 204.829 646.221,204.943 645.595,203.365 643.851 C 201.224 641.486,200.726 641.516,194.596 644.387 C 173.417 654.308,173.457 654.296,174.305 650.750 C 178.480 633.305,178.268 633.570,187.477 634.321 L 194.500 634.893 191.234 631.947 C 188.178 629.189,187.442 629.000,179.762 629.000 L 171.555 629.000 176.513 624.637 C 180.865 620.808,181.306 620.073,180.113 618.637 C 179.366 617.737,178.473 617.013,178.128 617.029 C 177.782 617.045,173.225 620.629,168.000 624.995 M590.394 618.417 C 589.382 621.052,590.651 622.769,596.908 627.232 C 602.565 631.267,605.249 635.138,601.250 633.495 C 592.815 630.029,581.112 628.955,579.036 631.456 C 577.428 633.394,577.606 633.611,587.733 642.126 C 592.555 646.179,596.792 649.900,597.149 650.394 C 598.213 651.865,601.000 650.216,601.000 648.116 C 601.000 646.188,590.008 637.000,587.701 637.000 C 587.001 637.000,586.948 636.652,587.556 636.044 C 588.136 635.464,590.079 635.425,592.506 635.946 C 609.048 639.497,612.000 639.357,612.000 635.023 C 612.000 633.551,594.709 618.173,591.924 617.167 C 591.416 616.984,590.728 617.546,590.394 618.417 M566.489 644.012 C 564.725 645.962,564.739 646.183,566.965 651.262 C 568.228 654.143,569.621 657.400,570.061 658.500 C 573.303 666.613,576.404 673.000,577.101 673.000 C 578.991 673.000,579.960 669.184,578.867 666.048 C 578.263 664.315,577.938 662.808,578.145 662.699 C 578.353 662.590,580.180 660.973,582.207 659.106 C 585.680 655.908,586.069 655.786,588.971 656.988 C 591.653 658.099,592.306 658.033,594.026 656.476 C 595.889 654.790,595.902 654.623,594.251 653.519 C 593.288 652.875,588.000 650.414,582.500 648.051 C 577.000 645.687,572.072 643.359,571.550 642.877 C 570.043 641.486,568.452 641.843,566.489 644.012 M198.000 648.966 C 198.000 650.947,194.587 657.000,193.470 657.000 C 192.832 657.000,191.564 656.176,190.653 655.169 C 189.088 653.440,189.205 653.194,192.748 650.768 C 196.921 647.911,198.000 647.541,198.000 648.966 M578.904 652.000 C 580.676 652.000,580.162 654.543,577.994 656.506 C 576.890 657.504,575.823 658.136,575.621 657.911 C 574.480 656.633,572.000 650.860,572.000 649.482 C 572.000 648.095,572.414 648.159,574.904 649.932 C 576.502 651.069,578.302 652.000,578.904 652.000 M553.667 655.667 C 552.420 656.913,552.995 658.840,555.500 661.818 C 556.875 663.452,558.000 665.225,558.000 665.758 C 558.000 666.292,556.161 668.002,553.914 669.560 L 549.828 672.391 546.582 668.524 C 544.320 665.830,542.830 664.851,541.668 665.297 C 539.116 666.277,539.634 668.201,544.035 674.096 C 556.779 691.166,555.404 689.888,558.548 687.589 C 560.417 686.222,560.377 686.052,557.239 682.147 C 555.457 679.931,554.000 677.469,554.000 676.677 C 554.000 675.885,555.643 673.984,557.652 672.452 L 561.304 669.666 564.902 673.849 C 568.773 678.348,570.063 678.834,571.987 676.516 C 573.009 675.285,571.881 673.340,565.359 665.085 C 558.170 655.986,555.499 653.834,553.667 655.667 M212.465 656.951 C 206.914 659.203,206.412 663.850,210.955 670.931 C 214.362 676.240,214.611 679.259,211.689 679.821 C 208.382 680.458,205.000 677.285,205.000 673.544 C 205.000 670.946,204.494 669.974,202.875 669.460 C 198.821 668.173,197.735 673.412,200.960 678.701 C 204.962 685.266,214.143 687.176,218.018 682.250 C 220.804 678.708,220.207 674.614,216.014 668.520 C 214.297 666.025,213.168 663.537,213.505 662.992 C 215.163 660.309,221.000 663.631,221.000 667.257 C 221.000 669.273,223.856 672.207,225.081 671.450 C 225.586 671.138,226.000 669.155,226.000 667.045 C 226.000 663.904,225.358 662.644,222.465 660.104 C 220.521 658.397,218.533 657.000,218.047 657.000 C 217.561 657.000,216.564 656.803,215.832 656.563 C 215.099 656.322,213.584 656.497,212.465 656.951 M228.178 674.750 C 226.035 677.913,223.271 682.488,222.035 684.917 C 219.907 689.103,219.872 689.509,221.382 692.674 C 224.142 698.462,232.255 702.269,236.735 699.878 C 240.425 697.907,251.195 680.940,249.812 679.274 C 247.731 676.766,245.989 678.122,240.528 686.500 C 235.653 693.980,234.636 695.000,232.051 695.000 C 229.215 695.000,226.000 692.062,226.000 689.471 C 226.000 688.875,228.423 684.587,231.385 679.944 C 235.251 673.883,236.486 671.147,235.763 670.250 C 233.883 667.919,232.084 668.986,228.178 674.750 M533.068 671.418 C 531.895 672.832,532.990 675.197,540.177 686.770 C 542.668 690.781,542.020 694.214,538.467 695.833 C 534.716 697.542,532.842 696.122,527.470 687.504 C 524.275 682.378,522.182 680.000,520.865 680.000 C 517.490 680.000,517.773 682.575,521.868 689.125 C 528.566 699.838,530.720 702.000,534.694 702.000 C 538.088 702.000,543.186 699.304,545.750 696.154 C 548.272 693.055,547.212 687.455,542.751 680.308 C 536.099 669.648,535.212 668.834,533.068 671.418 M253.785 684.782 C 252.978 685.727,249.965 690.916,247.089 696.314 C 242.893 704.192,242.096 706.411,243.053 707.564 C 243.709 708.354,244.616 709.000,245.069 709.000 C 245.522 709.000,248.660 710.622,252.042 712.604 C 256.619 715.286,258.481 715.919,259.323 715.077 C 260.871 713.529,259.139 710.891,255.408 709.117 C 248.508 705.836,248.492 705.683,254.008 695.389 C 256.754 690.266,259.000 685.848,259.000 685.572 C 259.000 685.296,258.157 684.619,257.126 684.067 C 255.707 683.308,254.895 683.482,253.785 684.782 M504.178 688.160 C 500.701 689.839,497.606 691.864,497.300 692.660 C 496.995 693.456,499.345 699.198,502.524 705.420 C 507.253 714.677,508.642 716.645,510.167 716.246 C 513.065 715.488,513.232 714.375,511.078 710.153 C 509.198 706.469,509.181 706.149,510.790 704.747 C 511.731 703.928,513.513 702.733,514.750 702.093 C 515.988 701.453,517.740 699.800,518.645 698.419 C 520.980 694.855,519.074 688.607,515.011 686.506 C 511.322 684.598,511.663 684.546,504.178 688.160 M269.289 692.690 C 268.929 693.628,269.160 694.553,269.807 694.769 C 270.448 694.983,271.915 695.920,273.066 696.853 L 275.160 698.548 271.080 707.819 C 266.524 718.171,266.270 719.506,268.678 720.430 C 270.982 721.314,272.049 719.849,276.447 709.750 C 278.543 704.938,280.621 701.000,281.064 701.000 C 281.507 701.000,283.079 701.460,284.557 702.021 C 287.304 703.066,290.415 701.746,289.770 699.810 C 289.477 698.931,272.371 691.000,270.767 691.000 C 270.311 691.000,269.645 691.761,269.289 692.690 M512.418 691.607 C 515.234 692.687,514.299 696.846,510.750 699.027 L 507.500 701.024 505.750 698.901 C 503.347 695.987,503.556 693.114,506.250 692.031 C 509.021 690.918,510.378 690.824,512.418 691.607 M482.500 697.852 C 479.200 699.310,475.980 700.840,475.345 701.252 C 474.523 701.785,475.205 704.517,477.714 710.750 C 479.652 715.563,481.811 721.059,482.514 722.965 C 483.216 724.871,484.265 726.588,484.846 726.782 C 486.236 727.245,499.079 722.207,501.811 720.127 C 503.347 718.958,503.686 718.082,503.019 717.014 C 502.220 715.736,501.627 715.716,498.795 716.870 C 488.884 720.910,488.574 720.973,487.250 719.247 C 485.219 716.600,485.717 713.220,488.250 712.456 C 492.958 711.036,497.000 708.721,497.000 707.445 C 497.000 704.928,494.911 704.845,489.366 707.144 C 483.891 709.413,483.780 709.419,482.388 707.515 C 481.610 706.451,481.118 705.145,481.296 704.612 C 481.642 703.573,481.995 703.374,489.250 700.142 C 494.569 697.773,495.693 694.938,491.250 695.101 C 489.738 695.156,485.800 696.394,482.500 697.852 M287.009 712.527 C 282.339 718.256,278.377 723.368,278.204 723.887 C 278.031 724.406,278.869 725.141,280.066 725.521 C 281.648 726.023,282.910 725.545,284.687 723.768 L 287.130 721.324 292.315 723.008 C 296.816 724.470,297.545 725.075,297.838 727.596 C 298.266 731.264,299.688 733.000,302.265 733.000 C 304.146 733.000,304.240 732.570,303.630 726.750 C 303.270 723.313,302.688 716.675,302.337 712.000 C 301.985 707.325,301.203 703.169,300.599 702.765 C 297.593 700.755,295.208 702.468,287.009 712.527 M456.973 706.692 C 453.609 708.994,453.033 709.995,453.015 713.576 C 452.990 718.578,456.448 721.000,463.614 721.000 C 472.337 721.000,475.006 724.599,468.562 727.672 C 465.372 729.193,464.942 729.192,462.597 727.656 C 458.092 724.704,454.893 726.063,457.015 730.027 C 461.113 737.686,477.000 732.576,477.000 723.599 C 477.000 718.076,474.290 716.000,467.082 716.000 C 463.827 716.000,460.452 715.727,459.582 715.393 C 456.994 714.400,457.751 711.346,460.908 710.038 C 463.313 709.042,464.233 709.107,466.224 710.411 C 468.308 711.777,468.891 711.800,470.553 710.585 C 472.437 709.207,472.438 709.141,470.582 707.090 C 468.180 704.436,460.593 704.214,456.973 706.692 M312.466 710.750 C 312.152 712.263,311.042 716.875,310.000 721.000 C 306.759 733.829,306.762 733.790,309.073 734.523 C 310.216 734.886,311.341 734.992,311.573 734.760 C 311.951 734.382,314.343 724.577,315.658 718.014 C 316.291 714.856,317.462 716.773,318.396 722.500 C 319.470 729.080,323.296 737.959,325.336 738.607 C 327.808 739.391,329.072 737.970,330.030 733.330 C 331.889 724.327,334.028 715.091,334.599 713.603 C 335.064 712.390,334.592 712.000,332.654 712.000 C 329.861 712.000,329.189 713.547,326.855 725.356 C 325.568 731.872,324.945 731.417,323.048 722.573 C 322.349 719.314,320.944 714.701,319.924 712.323 C 318.441 708.862,317.569 708.000,315.555 708.000 C 313.615 708.000,312.907 708.630,312.466 710.750 M298.000 713.441 C 298.000 715.884,297.571 718.147,297.046 718.472 C 295.727 719.287,291.000 717.999,291.000 716.825 C 291.000 715.468,296.058 709.000,297.119 709.000 C 297.603 709.000,298.000 710.998,298.000 713.441 M436.047 711.884 C 433.882 712.488,433.401 713.559,431.936 721.034 C 431.024 725.690,429.958 732.087,429.567 735.250 C 429.176 738.413,428.535 741.000,428.143 741.000 C 427.410 741.000,422.546 735.382,417.831 729.089 L 415.162 725.526 419.581 720.354 C 424.953 714.066,425.208 712.712,420.750 714.158 C 417.104 715.341,410.740 721.800,408.941 726.143 C 407.126 730.524,406.000 729.559,406.000 723.622 C 406.000 718.083,404.497 715.488,401.871 716.496 C 400.731 716.934,400.639 719.261,401.349 729.763 C 401.823 736.768,402.630 743.016,403.142 743.647 C 403.654 744.277,404.957 744.563,406.037 744.280 C 407.639 743.861,408.000 742.896,408.000 739.038 C 408.000 735.668,408.544 733.818,409.895 732.595 C 411.713 730.950,411.965 731.106,416.132 736.440 C 420.172 741.614,420.765 742.000,424.672 742.000 C 430.962 742.000,433.945 740.524,434.636 737.071 C 435.090 734.802,435.903 733.979,438.114 733.554 C 439.701 733.249,442.265 732.758,443.811 732.462 C 446.088 732.026,446.879 732.406,447.980 734.462 C 449.336 736.996,453.277 737.979,454.453 736.076 C 455.210 734.852,439.905 710.558,438.718 711.100 C 438.598 711.155,437.396 711.507,436.047 711.884 M345.819 715.750 C 343.420 718.566,333.000 737.880,333.000 739.511 C 333.000 742.042,336.733 741.155,339.178 738.043 C 341.372 735.249,341.776 735.125,346.500 735.793 C 350.877 736.412,351.676 736.899,352.911 739.705 C 354.449 743.199,356.763 744.637,358.329 743.071 C 359.736 741.664,354.225 718.358,351.751 715.250 C 350.334 713.471,347.562 713.704,345.819 715.750 M364.677 716.750 C 364.435 717.163,363.918 723.149,363.529 730.053 C 362.912 741.002,363.030 742.780,364.453 743.961 C 367.352 746.367,368.500 743.669,368.500 734.447 C 368.500 729.801,368.864 726.121,369.309 726.269 C 369.755 726.418,372.246 730.581,374.847 735.520 C 379.176 743.742,379.825 744.500,382.537 744.500 L 385.500 744.500 385.500 730.500 C 385.500 717.167,385.405 716.500,383.500 716.500 C 381.636 716.500,381.500 717.165,381.504 726.250 C 381.507 731.612,381.207 736.000,380.838 736.000 C 380.469 736.000,378.292 732.288,376.001 727.750 C 373.710 723.212,371.128 718.712,370.263 717.750 C 368.659 715.966,365.473 715.395,364.677 716.750 M441.231 722.751 C 443.070 726.666,442.823 727.375,439.250 728.455 C 437.123 729.098,437.000 728.857,437.000 724.067 C 437.000 717.939,438.720 717.404,441.231 722.751 M350.069 725.846 C 350.719 730.619,350.521 731.000,347.392 731.000 C 344.139 731.000,343.808 729.805,345.770 725.139 C 347.891 720.092,349.318 720.327,350.069 725.846 M462.044 754.750 C 462.068 756.813,462.736 760.300,463.529 762.500 C 464.321 764.700,464.977 767.550,464.985 768.833 C 464.997 770.766,463.697 769.780,457.396 763.083 C 452.094 757.447,449.085 755.000,447.455 755.000 C 444.349 755.000,443.859 756.048,445.067 760.108 C 445.623 761.973,446.506 765.750,447.032 768.500 C 449.057 779.107,450.276 782.000,452.718 782.000 C 455.595 782.000,455.663 779.571,453.000 772.000 C 449.628 762.413,450.454 762.253,458.604 770.917 C 462.786 775.363,467.006 779.000,467.981 779.000 C 470.985 779.000,472.080 776.751,470.941 772.922 C 470.381 771.040,469.494 767.250,468.968 764.500 C 467.113 754.786,465.659 751.000,463.782 751.000 C 462.382 751.000,462.009 751.803,462.044 754.750 M306.500 754.257 C 302.261 757.357,301.375 758.754,300.031 764.461 C 299.048 768.636,299.101 770.103,300.340 773.020 C 302.814 778.845,305.318 780.428,312.123 780.466 C 317.352 780.496,318.354 780.183,320.033 778.000 C 322.467 774.835,322.462 774.282,319.995 773.499 C 318.715 773.092,317.040 773.610,315.360 774.931 C 311.951 777.613,310.448 777.539,307.455 774.545 C 302.103 769.194,306.265 757.000,313.443 757.000 C 314.310 757.000,316.431 758.350,318.157 760.000 C 321.452 763.149,323.427 763.736,324.559 761.905 C 326.487 758.786,318.066 751.969,312.364 752.032 C 310.789 752.049,308.150 753.051,306.500 754.257 M328.064 768.887 C 325.560 781.473,325.708 784.000,328.950 784.000 C 331.212 784.000,331.526 783.094,333.113 772.000 C 335.447 755.686,335.473 757.000,332.819 757.000 C 330.565 757.000,330.294 757.678,328.064 768.887 M425.500 758.483 C 419.642 760.591,417.011 764.360,417.005 770.655 C 416.998 777.615,420.068 783.276,425.074 785.533 C 430.404 787.937,435.022 786.850,440.130 781.991 C 444.211 778.109,444.242 778.025,443.808 772.024 C 443.193 763.526,439.740 759.306,432.000 757.596 C 430.625 757.292,427.700 757.691,425.500 758.483 M339.108 764.250 C 338.539 767.138,337.780 773.144,337.421 777.599 C 336.840 784.801,336.965 785.773,338.551 786.381 C 341.075 787.350,342.149 785.861,342.746 780.564 C 343.031 778.029,343.660 775.710,344.142 775.412 C 346.251 774.109,349.173 776.545,352.112 782.059 C 354.848 787.191,355.668 788.000,358.139 788.000 C 359.713 788.000,361.000 787.751,361.000 787.446 C 361.000 787.141,359.604 784.383,357.899 781.318 C 355.423 776.869,355.070 775.571,356.149 774.887 C 356.892 774.416,357.845 774.024,358.266 774.015 C 358.688 774.007,359.778 772.437,360.689 770.526 C 364.040 763.498,358.543 759.000,346.603 759.000 L 340.142 759.000 339.108 764.250 M365.494 764.250 C 365.167 766.038,365.034 772.225,365.199 778.000 L 365.500 788.500 375.630 788.784 C 383.899 789.015,385.866 788.791,386.336 787.566 C 387.138 785.477,386.244 785.130,378.126 784.375 L 371.000 783.713 371.000 780.402 L 371.000 777.091 377.750 776.796 C 383.735 776.534,384.500 776.273,384.500 774.500 C 384.500 772.756,383.667 772.436,378.000 772.000 C 371.795 771.523,371.486 771.375,371.184 768.750 L 370.867 766.000 378.327 766.000 C 383.742 766.000,385.931 765.622,386.315 764.622 C 387.360 761.898,384.641 761.000,375.345 761.000 L 366.091 761.000 365.494 764.250 M390.667 761.667 C 389.850 762.483,389.961 775.505,390.849 782.990 C 391.612 789.425,391.839 789.531,402.699 788.514 C 408.329 787.986,410.555 787.321,412.044 785.722 C 414.644 782.932,414.539 778.202,411.813 775.301 C 410.126 773.505,409.898 772.702,410.813 771.787 C 412.860 769.740,412.248 764.287,409.777 762.557 C 407.505 760.965,392.087 760.247,390.667 761.667 M434.819 763.829 C 437.340 765.768,438.720 771.996,437.609 776.421 C 436.880 779.327,431.793 782.387,429.108 781.534 C 425.918 780.522,422.849 776.295,422.293 772.147 C 421.817 768.598,422.127 767.719,424.798 765.048 C 428.244 761.602,431.422 761.215,434.819 763.829 M354.983 765.642 C 356.109 766.702,356.204 767.454,355.376 768.769 C 354.039 770.892,351.845 771.381,347.400 770.547 C 344.499 770.003,344.000 769.500,344.000 767.121 C 344.000 765.588,344.294 764.039,344.654 763.679 C 345.688 762.646,353.345 764.100,354.983 765.642 M407.000 767.878 C 407.000 770.725,404.560 772.164,400.320 771.815 C 396.989 771.540,396.459 771.148,396.184 768.750 C 395.872 766.041,395.951 766.000,401.434 766.000 C 406.212 766.000,407.000 766.266,407.000 767.878 M407.500 780.500 C 407.500 783.404,407.336 783.510,402.379 783.798 C 397.761 784.066,397.198 783.870,396.643 781.798 C 395.395 777.140,395.680 776.884,401.750 777.200 C 407.406 777.495,407.500 777.549,407.500 780.500 " stroke="none" fill="#000000" fill-rule="evenodd"/></svg>